<?xml version="1.0" encoding="UTF-8"?>
<svg id="Capa_2" data-name="Capa 2" xmlns="http://www.w3.org/2000/svg" xmlns:xlink="http://www.w3.org/1999/xlink" viewBox="0 0 1370.4 269.55">
  <defs>
    <style>
      .cls-1 {
        fill: url(#linear-gradient);
      }

      .cls-1, .cls-2, .cls-3, .cls-4, .cls-5, .cls-6, .cls-7, .cls-8, .cls-9, .cls-10 {
        stroke-width: 0px;
      }

      .cls-2 {
        fill: url(#linear-gradient-6);
      }

      .cls-3 {
        fill: url(#linear-gradient-5);
      }

      .cls-4 {
        fill: url(#linear-gradient-2);
      }

      .cls-5 {
        fill: url(#linear-gradient-7);
      }

      .cls-6 {
        fill: url(#linear-gradient-3);
      }

      .cls-7 {
        fill: url(#linear-gradient-9);
      }

      .cls-8 {
        fill: url(#linear-gradient-8);
      }

      .cls-9 {
        fill: #fff;
      }

      .cls-10 {
        fill: url(#linear-gradient-4);
      }
    </style>
    <linearGradient id="linear-gradient" x1="898.7" y1="82.99" x2="898.7" y2="218.72" gradientUnits="userSpaceOnUse">
      <stop offset="0" stop-color="#f74927"/>
      <stop offset="1" stop-color="#d62001"/>
    </linearGradient>
    <linearGradient id="linear-gradient-2" x1="1005.68" y1="82.99" x2="1005.68" y2="218.72" xlink:href="#linear-gradient"/>
    <linearGradient id="linear-gradient-3" x1="1114.64" y1="82.99" x2="1114.64" y2="218.72" xlink:href="#linear-gradient"/>
    <linearGradient id="linear-gradient-4" x1="1225.94" y1="82.99" x2="1225.94" y2="218.72" xlink:href="#linear-gradient"/>
    <linearGradient id="linear-gradient-5" x1="1330.09" y1="82.99" x2="1330.09" y2="218.72" xlink:href="#linear-gradient"/>
    <linearGradient id="linear-gradient-6" x1="269.35" y1="26.33" x2="245.52" y2="217.01" xlink:href="#linear-gradient"/>
    <linearGradient id="linear-gradient-7" x1="52.26" y1="-.81" x2="28.42" y2="189.87" xlink:href="#linear-gradient"/>
    <linearGradient id="linear-gradient-8" x1="24.07" y1="253.87" x2="279" y2="253.87" gradientUnits="userSpaceOnUse">
      <stop offset="0" stop-color="#d62001"/>
      <stop offset="1" stop-color="#f74927"/>
    </linearGradient>
    <linearGradient id="linear-gradient-9" x1="160.81" y1="12.76" x2="136.97" y2="203.44" gradientTransform="translate(121.91 -72.56) rotate(45)" xlink:href="#linear-gradient"/>
  </defs>
  <g id="Layer_1" data-name="Layer 1">
    <g>
      <g>
        <path class="cls-9" d="M435.01,103.96c7.64,7.56,11.46,17.5,11.46,29.83v83.82c0,1.64-.82,2.46-2.46,2.46h-18.73c-1.65,0-2.47-.82-2.47-2.46v-5.43c0-.33-.12-.57-.37-.74-.24-.16-.54-.08-.86.25-5.75,6.9-14.22,10.35-25.39,10.35-9.37,0-17.63-2.67-24.78-8.01-7.15-5.34-10.72-14.83-10.72-28.47s4.31-24.77,12.94-31.43c8.63-6.66,19.92-9.98,33.9-9.98h14.3c.66,0,.99-.33.99-.99v-7.15c0-6.9-1.64-12.45-4.93-16.64-3.29-4.19-7.56-6.29-12.82-6.29-4.11,0-7.56,1.4-10.35,4.19-2.8,2.8-4.44,6.41-4.93,10.85,0,1.65-.82,2.47-2.46,2.47h-19.97c-1.64,0-2.46-.82-2.46-2.47.82-10.51,5.01-19.06,12.57-25.64,7.56-6.57,16.93-9.86,28.1-9.86,11.99,0,21.82,3.78,29.46,11.34ZM416.4,195.91c4.27-3.61,6.41-8.71,6.41-15.28v-16.77c0-.65-.33-.99-.99-.99h-15.04c-6.57,0-11.83,1.77-15.78,5.3-3.94,3.54-5.92,8.67-5.92,15.41,0,5.91,1.48,10.35,4.44,13.31,2.96,2.96,6.9,4.44,11.83,4.44,5.75,0,10.76-1.81,15.04-5.42Z"/>
        <path class="cls-9" d="M473.83,217.61V49.98c0-1.64.82-2.47,2.47-2.47h18.73c1.64,0,2.46.83,2.46,2.47v167.63c0,1.64-.82,2.46-2.46,2.46h-18.73c-1.65,0-2.47-.82-2.47-2.46Z"/>
        <path class="cls-9" d="M655.88,103.84c5.51,7.32,8.26,17.55,8.26,30.69v83.08c0,1.64-.82,2.46-2.46,2.46h-18.49c-1.64,0-2.46-.82-2.46-2.46v-81.35c0-7.23-1.48-12.86-4.44-16.89-2.96-4.03-6.9-6.04-11.83-6.04-5.26,0-9.45,2.01-12.57,6.04-3.12,4.03-4.69,9.58-4.69,16.64v81.6c0,1.64-.82,2.46-2.46,2.46h-18.49c-1.65,0-2.47-.82-2.47-2.46v-81.35c0-7.23-1.48-12.86-4.44-16.89-2.96-4.03-6.9-6.04-11.83-6.04-5.26,0-9.45,2.01-12.57,6.04-3.12,4.03-4.68,9.58-4.68,16.64v81.6c0,1.64-.83,2.46-2.47,2.46h-18.49c-1.65,0-2.47-.82-2.47-2.46v-120.55c0-1.64.82-2.46,2.47-2.46h18.49c1.64,0,2.47.82,2.47,2.46v6.16c0,.33.12.58.37.74.25.17.53.08.86-.25,3.29-3.61,7.07-6.32,11.34-8.13,4.27-1.81,8.54-2.71,12.82-2.71,12.49,0,21.45,5.51,26.87,16.52.16.33.41.45.74.37.33-.08.57-.45.74-1.11,3.28-5.59,7.48-9.61,12.57-12.08,5.09-2.47,10.35-3.7,15.78-3.7,10.19,0,18.03,3.66,23.54,10.97Z"/>
        <path class="cls-9" d="M753.13,94.6h18.73c1.64,0,2.46.82,2.46,2.46v120.55c0,1.64-.82,2.46-2.46,2.46h-18.73c-1.65,0-2.47-.82-2.47-2.46v-7.15c0-.49-.12-.74-.37-.74s-.54.17-.86.49c-4.93,7.73-12.82,11.59-23.67,11.59-9.86,0-17.84-3-23.91-9-6.08-6-9.12-15.16-9.12-27.49v-88.25c0-1.64.82-2.46,2.47-2.46h18.73c1.64,0,2.46.82,2.46,2.46v83.08c0,14.14,5.59,21.2,16.77,21.2,5.59,0,9.9-2.01,12.94-6.04,3.04-4.03,4.56-9.57,4.56-16.64v-81.6c0-1.64.82-2.46,2.47-2.46Z"/>
        <path class="cls-1" d="M868.37,211.44c-7.48-7.06-11.21-16.6-11.21-28.6v-51.03c0-11.67,3.74-21.11,11.21-28.35,7.48-7.23,17.54-10.85,30.2-10.85,8.38,0,15.74,1.6,22.06,4.81,6.32,3.21,11.17,7.56,14.55,13.06,3.37,5.51,5.05,11.71,5.05,18.61v3.21c0,1.64-.82,2.46-2.46,2.46l-18.74.74c-1.64,0-2.46-.82-2.46-2.46v-2.46c0-4.77-1.73-8.88-5.18-12.33-3.45-3.45-7.73-5.18-12.82-5.18s-9.53,1.89-12.82,5.67c-3.29,3.78-4.93,8.63-4.93,14.55v48.07c0,5.92,1.64,10.77,4.93,14.55,3.28,3.78,7.56,5.67,12.82,5.67s9.37-1.73,12.82-5.18c3.45-3.45,5.18-7.56,5.18-12.33v-2.46c0-1.64.82-2.47,2.46-2.47l18.74.25c1.64,0,2.46.82,2.46,2.46v3.7c0,10.68-3.78,19.44-11.34,26.25-7.56,6.82-17.67,10.23-30.32,10.23s-22.72-3.53-30.2-10.6Z"/>
        <path class="cls-4" d="M975.11,211.32c-7.48-7.15-11.21-16.64-11.21-28.47v-51.03c0-11.67,3.78-21.11,11.34-28.35,7.56-7.23,17.66-10.85,30.32-10.85s23.01,3.62,30.57,10.85c7.56,7.23,11.34,16.68,11.34,28.35v51.03c0,11.83-3.78,21.32-11.34,28.47-7.56,7.15-17.75,10.72-30.57,10.72s-22.97-3.58-30.45-10.72ZM1018.62,195.79c3.45-3.7,5.18-8.58,5.18-14.67v-47.82c0-5.92-1.73-10.76-5.18-14.55-3.45-3.78-7.81-5.67-13.06-5.67s-9.58,1.89-12.94,5.67c-3.37,3.78-5.05,8.63-5.05,14.55v47.82c0,6.08,1.68,10.97,5.05,14.67,3.37,3.7,7.68,5.55,12.94,5.55s9.61-1.85,13.06-5.55Z"/>
        <path class="cls-6" d="M1134.73,47.51h18.73c1.64,0,2.46.83,2.46,2.47v167.63c0,1.64-.82,2.46-2.46,2.46h-18.73c-1.65,0-2.47-.82-2.47-2.46v-3.94c0-.33-.12-.57-.37-.74-.24-.16-.54-.08-.86.24-3.12,2.96-6.66,5.18-10.6,6.66-3.94,1.48-7.89,2.22-11.83,2.22-10.85,0-19.44-3.58-25.76-10.72-6.33-7.15-9.49-16.56-9.49-28.23v-51.28c0-12.16,3.16-21.73,9.49-28.72,6.32-6.98,14.91-10.48,25.76-10.48,3.94,0,7.89.74,11.83,2.22,3.94,1.48,7.48,3.7,10.6,6.66.33.33.62.41.86.25.25-.16.37-.41.37-.74v-51.03c0-1.64.82-2.47,2.47-2.47ZM1126.47,197.02c3.21-3.04,5.13-7.03,5.79-11.96v-55.47c-.66-4.93-2.59-8.91-5.79-11.96-3.21-3.04-7.11-4.56-11.71-4.56-5.26,0-9.58,1.89-12.94,5.67-3.37,3.78-5.05,8.63-5.05,14.55v48.07c0,5.92,1.68,10.77,5.05,14.55,3.37,3.78,7.68,5.67,12.94,5.67,4.6,0,8.5-1.52,11.71-4.56Z"/>
        <path class="cls-10" d="M1264.89,167.07h-55.71c-.66,0-.99.33-.99.99v13.31c0,5.92,1.64,10.77,4.93,14.55,3.28,3.78,7.56,5.67,12.82,5.67,4.6,0,8.46-1.4,11.59-4.19,3.12-2.79,5.09-6.41,5.91-10.85.49-1.31,1.4-1.97,2.71-1.97l18.24.98c.82,0,1.44.25,1.85.74.41.49.53,1.07.37,1.73-1.15,10.68-5.22,19.02-12.2,25.02-6.99,6-16.48,9-28.47,9-12.66,0-22.72-3.53-30.2-10.6-7.48-7.06-11.21-16.52-11.21-28.35v-51.28c0-11.67,3.74-21.11,11.21-28.35,7.48-7.23,17.54-10.85,30.2-10.85s22.93,3.62,30.32,10.85c7.39,7.23,11.09,16.68,11.09,28.35v32.79c0,1.64-.82,2.46-2.46,2.46ZM1213.12,118.75c-3.29,3.78-4.93,8.63-4.93,14.55v13.06c0,.66.33.99.99.99h33.77c.65,0,.99-.33.99-.99v-13.06c0-5.92-1.64-10.76-4.93-14.55-3.29-3.78-7.64-5.67-13.06-5.67s-9.53,1.89-12.82,5.67Z"/>
        <path class="cls-3" d="M1300.51,212.55c-7.15-6-10.72-14.09-10.72-24.28v-2.22c0-1.64.82-2.46,2.46-2.46h17.5c1.64,0,2.46.82,2.46,2.46v1.73c0,4.44,1.73,8.18,5.18,11.22,3.45,3.04,7.72,4.56,12.82,4.56s8.91-1.48,11.96-4.44c3.04-2.96,4.56-6.74,4.56-11.34,0-3.61-1.07-6.66-3.21-9.12-2.14-2.47-4.65-4.4-7.52-5.79-2.88-1.39-7.27-3.33-13.19-5.79-6.41-2.79-11.71-5.5-15.9-8.13-4.19-2.63-7.93-6.41-11.21-11.34-3.29-4.93-4.93-11.17-4.93-18.74,0-11.17,3.49-19.88,10.48-26.13,6.98-6.24,16.39-9.37,28.23-9.37s21.73,3.21,28.72,9.61c6.98,6.41,10.48,15.12,10.48,26.13v.74c0,1.65-.82,2.47-2.46,2.47h-17.01c-1.64,0-2.46-.82-2.46-2.47v-1.73c0-4.44-1.56-8.22-4.68-11.34-3.12-3.12-7.15-4.68-12.08-4.68s-9.12,1.56-12.08,4.68c-2.96,3.12-4.44,6.9-4.44,11.34,0,3.45.99,6.33,2.96,8.63,1.97,2.3,4.35,4.15,7.15,5.55,2.79,1.4,7.23,3.41,13.31,6.04,6.74,2.96,12.33,5.79,16.76,8.5,4.44,2.71,8.34,6.53,11.71,11.46,3.37,4.93,5.06,11.09,5.06,18.49,0,10.68-3.66,19.15-10.97,25.39-7.32,6.25-17.22,9.37-29.7,9.37s-22.07-3-29.21-9Z"/>
      </g>
      <g>
        <g>
          <path class="cls-2" d="M232.39,221.75v-31.35c9.19,0,16.67-7.48,16.67-16.67v-30.5c0-12.45,4.76-23.81,12.56-32.35-7.8-8.54-12.56-19.9-12.56-32.35v-30.5c0-9.19-7.48-16.67-16.67-16.67V0c26.48,0,48.02,21.54,48.02,48.02v30.5c0,9.19,7.48,16.67,16.67,16.67v31.35c-9.19,0-16.67,7.48-16.67,16.67v30.5c0,26.48-21.54,48.02-48.02,48.02Z"/>
          <path class="cls-5" d="M64.7,221.75c-26.48,0-48.02-21.54-48.02-48.02v-30.5c0-9.19-7.48-16.67-16.67-16.67v-31.35c9.19,0,16.67-7.48,16.67-16.67v-30.5C16.67,21.54,38.21,0,64.7,0v31.35c-9.19,0-16.67,7.48-16.67,16.67v30.5c0,12.45-4.76,23.81-12.56,32.35,7.8,8.54,12.56,19.9,12.56,32.35v30.5c0,9.19,7.48,16.67,16.67,16.67v31.35Z"/>
        </g>
        <path class="cls-8" d="M0,238.2c0,17.32,14.04,31.35,31.35,31.35h234.38c17.29,0,31.35-14.04,31.35-31.35H0ZM148.55,264.51c-5.88,0-10.64-4.75-10.64-10.64s4.75-10.64,10.64-10.64,10.64,4.78,10.64,10.64-4.78,10.64-10.64,10.64Z"/>
        <rect class="cls-7" x="65.08" y="95.2" width="166.93" height="31.35" rx="15.68" ry="15.68" transform="translate(-34.89 137.51) rotate(-45)"/>
      </g>
    </g>
  </g>
</svg>